# File created by Blade
# Date/Time:  Tue Jan 27 19:14:06 2015
# Frame Rate: 120.000 fps
#------------------------------------------------------
:FULLY-SPECIFIED
:DEGREES
2113
root 4.436431 32.420255 0.644482 -4.469270 7.860641 1.135759
Spine -1.220989 8.949501 -2.251903
Head 11.992746 -20.282492 -0.755506
LeftShoulder -5.532314 -8.324770 24.695186
LeftArm -5.526334 38.077282 -104.148729
LeftForeArm 3.319547 -0.000000 10.038635
LeftHand 9.968444 -0.000000 -7.980624
LeftHandThumb1 -26.253704 0.000000 33.147579
RightShoulder -13.746018 12.015475 -52.380649
RightArm 80.518267 56.509469 97.439583
RightForeArm 34.513591 -0.000000 112.629490
RightHand 28.892661 0.000000 -10.767246
RightHandThumb1 -24.326973 -0.000000 -32.862282
LeftUpLeg 9.641539 -3.943827 -1.880731
LeftLeg 2.421139 -0.000000 -0.000000
LeftFoot -14.428837 7.547734 -21.278241
LeftToeBase 19.040233 -0.000000 -0.000000
RightUpLeg 11.035379 -3.648530 2.013679
RightLeg -0.347850 -0.000000 0.000000
RightFoot -13.243458 -16.196326 15.372287
RightToeBase 11.247159 -0.000000 -0.000000
2114
root 4.435958 32.420467 0.642034 -4.458274 7.838051 1.133274
Spine -1.223173 8.937703 -2.248612
Head 11.973748 -20.300161 -0.752084
LeftShoulder -5.534225 -8.348233 24.699257
LeftArm -5.545572 38.095446 -104.192153
LeftForeArm 3.310216 -0.000000 10.076710
LeftHand 9.966347 0.000000 -7.927699
LeftHandThumb1 -26.253704 0.000000 33.147579
RightShoulder -13.739425 12.001010 -52.377222
RightArm 80.565496 56.507159 97.484343
RightForeArm 34.526525 -0.000000 112.643604
RightHand 28.886634 0.000000 -10.810692
RightHandThumb1 -24.326973 -0.000000 -32.862282
LeftUpLeg 9.863260 -5.052579 -2.097183
LeftLeg 1.991222 -0.000000 -0.000000
LeftFoot -14.703672 8.684088 -21.663362
LeftToeBase 19.212563 -0.000000 -0.000000
RightUpLeg 11.014728 -3.655704 2.012356
RightLeg -0.343349 -0.000000 0.000000
RightFoot -13.239401 -16.159993 15.389346
RightToeBase 11.295728 -0.000000 -0.000000
2115
root 4.435467 32.420741 0.641185 -4.457378 7.809447 1.129869
Spine -1.216492 8.926237 -2.245760
Head 11.949350 -20.314617 -0.735918
LeftShoulder -5.541736 -8.344594 24.708981
LeftArm -5.535366 38.110132 -104.221757
LeftForeArm 3.286915 -0.000000 10.104817
LeftHand 9.987588 -0.000000 -7.859911
LeftHandThumb1 -26.253704 0.000000 33.147579
RightShoulder -13.732724 11.995033 -52.365200
RightArm 80.615438 56.498131 97.523628
RightForeArm 34.495620 0.000000 112.655813
RightHand 28.886861 -0.000000 -10.824186
RightHandThumb1 -24.326973 -0.000000 -32.862282
LeftUpLeg 9.865183 -5.046767 -2.096273
LeftLeg 1.994991 -0.000000 -0.000000
LeftFoot -14.703078 8.660157 -21.818079
LeftToeBase 19.022227 -0.000000 -0.000000
RightUpLeg 11.008068 -3.628941 2.019235
RightLeg -0.343470 -0.000000 0.000000
RightFoot -13.220138 -16.169416 15.358431
RightToeBase 11.304670 -0.000000 -0.000000
2116
root 4.434116 32.421014 0.641170 -4.458202 7.783416 1.128742
Spine -1.207913 8.926952 -2.244506
Head 11.929994 -20.320186 -0.738045
LeftShoulder -5.532373 -8.365698 24.707539
LeftArm -5.550777 38.138029 -104.245837
LeftForeArm 3.226102 -0.000000 10.153538
LeftHand 10.048739 -0.000000 -7.891944
LeftHandThumb1 -26.253704 0.000000 33.147579
RightShoulder -13.750780 12.017378 -52.384742
RightArm 80.589729 56.478110 97.522864
RightForeArm 34.454067 -0.000000 112.679880
RightHand 28.866589 -0.000000 -10.840219
RightHandThumb1 -24.326973 -0.000000 -32.862282
LeftUpLeg 9.868512 -5.071053 -2.099150
LeftLeg 2.001777 -0.000000 -0.000000
LeftFoot -14.698932 8.713884 -21.654914
LeftToeBase 18.979081 -0.000000 -0.000000
RightUpLeg 11.004110 -3.618208 2.023246
RightLeg -0.340789 -0.000000 0.000000
RightFoot -13.209877 -16.161872 15.365886
RightToeBase 11.258587 -0.000000 -0.000000
2117
root 4.434212 32.421222 0.642937 -4.473858 7.749481 1.130746
Spine -1.191268 8.939289 -2.250544
Head 11.925575 -20.346383 -0.721719
LeftShoulder -5.531491 -8.367479 24.718400
LeftArm -5.538148 38.167766 -104.269061
LeftForeArm 3.218521 -0.000000 10.196702
LeftHand 10.088010 -0.000000 -7.929107
LeftHandThumb1 -26.253704 0.000000 33.147579
RightShoulder -13.739303 12.022531 -52.366061
RightArm 80.615394 56.489343 97.541017
RightForeArm 34.440632 -0.000000 112.699035
RightHand 28.849174 0.000000 -10.791703
RightHandThumb1 -24.326973 -0.000000 -32.862282
LeftUpLeg 9.893467 -5.074945 -2.106370
LeftLeg 1.991225 -0.000000 -0.000000
LeftFoot -14.746474 8.772299 -21.705337
LeftToeBase 19.210981 -0.000000 -0.000000
RightUpLeg 11.018534 -3.597970 2.021170
RightLeg -0.341283 -0.000000 0.000000
RightFoot -13.199702 -16.148348 15.345706
RightToeBase 11.292787 -0.000000 -0.000000
2118
root 4.433295 32.421658 0.641009 -4.469649 7.727757 1.133224
Spine -1.191022 8.928942 -2.264845
Head 11.922476 -20.377989 -0.690695
LeftShoulder -5.515535 -8.368400 24.725316
LeftArm -5.533760 38.187174 -104.284421
LeftForeArm 3.224098 -0.000000 10.276401
LeftHand 10.010230 -0.000000 -7.911315
LeftHandThumb1 -26.253704 0.000000 33.147579
RightShoulder -13.725042 12.030385 -52.341347
RightArm 80.647846 56.491032 97.564807
RightForeArm 34.429540 -0.000000 112.721399
RightHand 28.869275 -0.000000 -10.775410
RightHandThumb1 -24.326973 -0.000000 -32.862282
LeftUpLeg 9.892924 -5.073627 -2.109921
LeftLeg 1.982790 -0.000000 -0.000000
LeftFoot -14.742762 8.790231 -21.729740
LeftToeBase 19.135956 -0.000000 -0.000000
RightUpLeg 11.009188 -3.554569 2.025537
RightLeg -0.343843 -0.000000 0.000000
RightFoot -13.208671 -16.173183 15.351152
RightToeBase 11.270704 -0.000000 -0.000000
2119
root 4.433668 32.421445 0.641901 -4.478450 7.698093 1.125389
Spine -1.182817 8.940063 -2.249525
Head 11.914251 -20.406123 -0.700189
LeftShoulder -5.504752 -8.391181 24.717378
LeftArm -5.557650 38.235495 -104.312151
LeftForeArm 3.187859 0.000000 10.356097
LeftHand 9.969700 -0.000000 -7.835489
LeftHandThumb1 -26.253704 0.000000 33.147579
RightShoulder -13.724621 12.052010 -52.356122
RightArm 80.606594 56.494427 97.538754
RightForeArm 34.433532 0.000000 112.747830
RightHand 28.871928 -0.000000 -10.771155
RightHandThumb1 -24.326973 -0.000000 -32.862282
LeftUpLeg 9.900459 -5.057406 -2.101559
LeftLeg 1.994615 -0.000000 -0.000000
LeftFoot -14.762410 8.778810 -21.754117
LeftToeBase 19.154566 -0.000000 -0.000000
RightUpLeg 11.007577 -3.558608 2.027067
RightLeg -0.325574 -0.000000 0.000000
RightFoot -13.212462 -16.127977 15.374971
RightToeBase 11.262939 -0.000000 -0.000000
2120
root 4.432192 32.420981 0.640023 -4.469949 7.689524 1.115715
Spine -1.183679 8.918607 -2.239934
Head 11.901873 -20.408788 -0.703530
LeftShoulder -5.509050 -8.423339 24.713399
LeftArm -5.583257 38.264457 -104.334606
LeftForeArm 3.176634 -0.000000 10.426655
LeftHand 10.048738 -0.000000 -7.837076
LeftHandThumb1 -26.253704 0.000000 33.147579
RightShoulder -13.727080 12.042269 -52.357900
RightArm 80.665535 56.480618 97.599128
RightForeArm 34.410098 -0.000000 112.765444
RightHand 28.864168 0.000000 -10.743814
RightHandThumb1 -24.326973 -0.000000 -32.862282
LeftUpLeg 9.896933 -4.924631 -2.064350
LeftLeg 1.967226 -0.000000 -0.000000
LeftFoot -14.706384 8.656916 -21.728412
LeftToeBase 19.215843 -0.000000 -0.000000
RightUpLeg 10.994391 -3.540178 2.041120
RightLeg -0.329137 -0.000000 0.000000
RightFoot -13.200726 -16.138523 15.356119
RightToeBase 11.244813 -0.000000 -0.000000
2121
root 4.431617 32.421509 0.637664 -4.460057 7.682983 1.119746
Spine -1.195640 8.896004 -2.252304
Head 11.899262 -20.469296 -0.700112
LeftShoulder -5.498903 -8.395010 24.710821
LeftArm -5.544342 38.311331 -104.320118
LeftForeArm 3.155638 -0.000000 10.500053
LeftHand 10.070064 -0.000000 -7.686984
LeftHandThumb1 -26.253704 0.000000 33.147579
RightShoulder -13.709433 12.043450 -52.338968
RightArm 80.687413 56.474325 97.610476
RightForeArm 34.400457 -0.000000 112.789461
RightHand 28.858584 -0.000000 -10.774337
RightHandThumb1 -24.326973 -0.000000 -32.862282
LeftUpLeg 9.888187 -4.908550 -2.067043
LeftLeg 1.961385 -0.000000 -0.000000
LeftFoot -14.703147 8.688640 -21.660350
LeftToeBase 19.172710 -0.000000 -0.000000
RightUpLeg 10.977806 -3.512290 2.044224
RightLeg -0.326423 -0.000000 0.000000
RightFoot -13.206661 -16.166201 15.367453
RightToeBase 11.304675 -0.000000 -0.000000
2122
root 4.429850 32.421294 0.636659 -4.457153 7.678258 1.112060
Spine -1.196305 8.886168 -2.251306
Head 11.897383 -20.481309 -0.691708
LeftShoulder -5.499264 -8.406252 24.715359
LeftArm -5.529286 38.358508 -104.326277
LeftForeArm 3.178604 -0.000000 10.564282
LeftHand 10.041795 -0.000000 -7.793308
LeftHandThumb1 -26.253704 0.000000 33.147579
RightShoulder -13.713079 12.021257 -52.328421
RightArm 80.739489 56.461871 97.655152
RightForeArm 34.391050 -0.000000 112.798199
RightHand 28.863355 -0.000000 -10.780403
RightHandThumb1 -24.326973 -0.000000 -32.862282
LeftUpLeg 9.886216 -4.887976 -2.050957
LeftLeg 1.951062 -0.000000 -0.000000
LeftFoot -14.685748 8.652363 -21.688124
LeftToeBase 19.115994 -0.000000 -0.000000
RightUpLeg 10.969315 -3.522077 2.054432
RightLeg -0.322834 -0.000000 0.000000
RightFoot -13.191672 -16.162615 15.351965
RightToeBase 11.261792 -0.000000 -0.000000
2123
root 4.428339 32.421245 0.635025 -4.453102 7.670382 1.108192
Spine -1.195572 8.887416 -2.255841
Head 11.891027 -20.504854 -0.686851
LeftShoulder -5.487858 -8.438177 24.723524
LeftArm -5.544041 38.396285 -104.345684
LeftForeArm 3.138592 -0.000000 10.653479
LeftHand 9.973729 -0.000000 -7.720714
LeftHandThumb1 -26.253704 0.000000 33.147579
RightShoulder -13.724183 11.982353 -52.315507
RightArm 80.814932 56.446302 97.726630
RightForeArm 34.395406 0.000000 112.809947
RightHand 28.863236 -0.000000 -10.756276
RightHandThumb1 -24.326973 -0.000000 -32.862282
LeftUpLeg 9.879720 -4.868294 -2.041323
LeftLeg 1.951105 -0.000000 -0.000000
LeftFoot -14.688887 8.648250 -21.660332
LeftToeBase 19.220325 -0.000000 -0.000000
RightUpLeg 10.958330 -3.516132 2.060300
RightLeg -0.318560 -0.000000 0.000000
RightFoot -13.191776 -16.159526 15.353049
RightToeBase 11.237399 -0.000000 -0.000000
